# MagicaVoxel @ Ephtracy

# group
g Zombie1

# material
mtllib Zombie1.mtl
usemtl palette

# normals
vn -1 0 0
vn 1 0 0
vn 0 0 1
vn 0 0 -1
vn 0 -1 0
vn 0 1 0

# texcoords
vt 0.162109 0.5
vt 0.896484 0.5
vt 0.904297 0.5

# verts
v -5 15 7
v -5 15 -1
v -5 17 7
v -5 17 -1
v -4 14 1
v -4 14 -1
v -4 15 1
v -4 15 -1
v -4 16 -1
v -4 16 -2
v -4 17 -1
v -4 17 -2
v -3 1 3
v -3 1 -1
v -3 3 3
v -3 3 1
v -3 5 1
v -3 5 -1
v -3 9 1
v -3 9 -0
v -3 10 -0
v -3 10 -1
v -3 14 1
v -3 14 -1
v -3 15 -1
v -3 15 -2
v -3 16 -1
v -3 16 -2
v -2 14 2
v -2 14 1
v -2 14 -1
v -2 14 -2
v -2 15 2
v -2 15 1
v -2 15 -1
v -2 15 -2
v -2 18 2
v -2 18 -1
v -2 19 2
v -2 19 1
v -2 20 2
v -2 20 1
v -2 21 2
v -2 21 -1
v -1 12 2
v -1 12 1
v -1 12 -1
v -1 12 -2
v -1 13 1
v -1 14 2
v -1 14 1
v -1 14 -1
v -1 14 -2
v -1 16 -1
v -1 16 -2
v -1 17 1
v -1 17 -0
v -1 17 -1
v -1 17 -2
v -1 18 1
v -1 18 -1
v 1 1 3
v 1 1 -1
v 1 3 3
v 1 3 1
v 1 3 -0
v 1 8 1
v 1 8 -0
v 1 8 -1
v 1 16 2
v 1 16 1
v 1 17 2
v 1 17 1
v 2 16 -1
v 2 16 -2
v 2 17 -1
v 2 17 -2
v 3 15 7
v 3 15 2
v 3 17 7
v 3 17 2
v -3 15 7
v -3 15 2
v -3 17 7
v -3 17 2
v -2 16 -1
v -2 16 -2
v -2 17 -1
v -2 17 -2
v -1 1 3
v -1 1 -1
v -1 3 3
v -1 3 1
v -1 3 -0
v -1 8 1
v -1 8 -0
v -1 8 -1
v -1 16 2
v -1 16 1
v -1 17 2
v -1 17 1
v 1 12 2
v 1 12 1
v 1 12 -1
v 1 12 -2
v 1 13 1
v 1 14 2
v 1 14 1
v 1 14 -1
v 1 14 -2
v 1 16 -1
v 1 16 -2
v 1 17 1
v 1 17 -0
v 1 17 -1
v 1 17 -2
v 1 18 1
v 1 18 -1
v 2 14 2
v 2 14 1
v 2 14 -1
v 2 14 -2
v 2 15 2
v 2 15 1
v 2 15 -1
v 2 15 -2
v 2 18 2
v 2 18 -1
v 2 19 2
v 2 19 1
v 2 20 2
v 2 20 1
v 2 21 2
v 2 21 -1
v 3 1 3
v 3 1 -1
v 3 3 3
v 3 3 1
v 3 5 1
v 3 5 -1
v 3 9 1
v 3 9 -0
v 3 10 -0
v 3 10 -1
v 3 14 1
v 3 14 -1
v 3 15 -1
v 3 15 -2
v 3 16 -1
v 3 16 -2
v 4 14 1
v 4 14 -1
v 4 15 1
v 4 15 -1
v 4 16 -1
v 4 16 -2
v 4 17 -1
v 4 17 -2
v 5 15 7
v 5 15 -1
v 5 17 7
v 5 17 -1
v -5 15 7
v -5 17 7
v -3 15 7
v -3 17 7
v 3 15 7
v 3 17 7
v 5 15 7
v 5 17 7
v -3 1 3
v -3 3 3
v -1 1 3
v -1 3 3
v 1 1 3
v 1 3 3
v 3 1 3
v 3 3 3
v -3 15 2
v -3 17 2
v -2 14 2
v -2 15 2
v -2 18 2
v -2 19 2
v -2 20 2
v -2 21 2
v -1 12 2
v -1 14 2
v -1 16 2
v -1 17 2
v -1 18 2
v -1 19 2
v -1 20 2
v 1 12 2
v 1 14 2
v 1 16 2
v 1 17 2
v 1 18 2
v 1 19 2
v 1 20 2
v 2 14 2
v 2 15 2
v 2 18 2
v 2 19 2
v 2 20 2
v 2 21 2
v 3 15 2
v 3 17 2
v -4 14 1
v -4 15 1
v -3 3 1
v -3 5 1
v -3 9 1
v -3 14 1
v -3 15 1
v -2 3 1
v -2 5 1
v -2 9 1
v -2 10 1
v -2 13 1
v -2 14 1
v -2 15 1
v -1 3 1
v -1 8 1
v -1 10 1
v -1 12 1
v -1 13 1
v -1 14 1
v -1 16 1
v -1 17 1
v -1 18 1
v 1 3 1
v 1 8 1
v 1 10 1
v 1 12 1
v 1 13 1
v 1 14 1
v 1 16 1
v 1 17 1
v 1 18 1
v 2 3 1
v 2 5 1
v 2 9 1
v 2 10 1
v 2 13 1
v 2 14 1
v 2 15 1
v 3 3 1
v 3 5 1
v 3 9 1
v 3 14 1
v 3 15 1
v 4 14 1
v 4 15 1
v -5 15 -1
v -5 17 -1
v -4 14 -1
v -4 15 -1
v -4 16 -1
v -4 17 -1
v -3 1 -1
v -3 5 -1
v -3 10 -1
v -3 14 -1
v -3 15 -1
v -3 16 -1
v -2 5 -1
v -2 9 -1
v -2 10 -1
v -2 11 -1
v -2 14 -1
v -2 15 -1
v -2 16 -1
v -2 17 -1
v -2 18 -1
v -2 21 -1
v -1 1 -1
v -1 8 -1
v -1 9 -1
v -1 10 -1
v -1 11 -1
v -1 12 -1
v -1 14 -1
v -1 16 -1
v -1 17 -1
v -1 18 -1
v 1 1 -1
v 1 8 -1
v 1 9 -1
v 1 10 -1
v 1 11 -1
v 1 12 -1
v 1 14 -1
v 1 16 -1
v 1 17 -1
v 1 18 -1
v 2 5 -1
v 2 9 -1
v 2 10 -1
v 2 11 -1
v 2 14 -1
v 2 15 -1
v 2 16 -1
v 2 17 -1
v 2 18 -1
v 2 21 -1
v 3 1 -1
v 3 5 -1
v 3 10 -1
v 3 14 -1
v 3 15 -1
v 3 16 -1
v 4 14 -1
v 4 15 -1
v 4 16 -1
v 4 17 -1
v 5 15 -1
v 5 17 -1
v -4 16 -2
v -4 17 -2
v -3 15 -2
v -3 16 -2
v -2 14 -2
v -2 15 -2
v -2 16 -2
v -2 17 -2
v -1 12 -2
v -1 14 -2
v -1 16 -2
v -1 17 -2
v 1 12 -2
v 1 14 -2
v 1 16 -2
v 1 17 -2
v 2 14 -2
v 2 15 -2
v 2 16 -2
v 2 17 -2
v 3 15 -2
v 3 16 -2
v 4 16 -2
v 4 17 -2
v -3 1 3
v -1 1 3
v 1 1 3
v 3 1 3
v -3 1 -1
v -1 1 -1
v 1 1 -1
v 3 1 -1
v -1 8 1
v 1 8 1
v -1 8 -0
v 1 8 -0
v -1 8 -1
v 1 8 -1
v -1 12 2
v 1 12 2
v -1 12 1
v 1 12 1
v -1 12 -1
v 1 12 -1
v -1 12 -2
v 1 12 -2
v -2 14 2
v -1 14 2
v 1 14 2
v 2 14 2
v -4 14 1
v -3 14 1
v -2 14 1
v -1 14 1
v 1 14 1
v 2 14 1
v 3 14 1
v 4 14 1
v -4 14 -1
v -3 14 -1
v -2 14 -1
v -1 14 -1
v 1 14 -1
v 2 14 -1
v 3 14 -1
v 4 14 -1
v -2 14 -2
v -1 14 -2
v 1 14 -2
v 2 14 -2
v -5 15 7
v -3 15 7
v 3 15 7
v 5 15 7
v -3 15 2
v -2 15 2
v 2 15 2
v 3 15 2
v -4 15 1
v -3 15 1
v -2 15 1
v 2 15 1
v 3 15 1
v 4 15 1
v -5 15 -1
v -4 15 -1
v -3 15 -1
v -2 15 -1
v 2 15 -1
v 3 15 -1
v 4 15 -1
v 5 15 -1
v -3 15 -2
v -2 15 -2
v 2 15 -2
v 3 15 -2
v -4 16 -1
v -3 16 -1
v 3 16 -1
v 4 16 -1
v -4 16 -2
v -3 16 -2
v 3 16 -2
v 4 16 -2
v -2 18 2
v -1 18 2
v 1 18 2
v 2 18 2
v -1 18 1
v 1 18 1
v -2 18 -1
v -1 18 -1
v 1 18 -1
v 2 18 -1
v -3 3 3
v -1 3 3
v 1 3 3
v 3 3 3
v -3 3 1
v -2 3 1
v -1 3 1
v 1 3 1
v 2 3 1
v 3 3 1
v -1 16 2
v 1 16 2
v -1 16 1
v 1 16 1
v -2 16 -1
v -1 16 -1
v 1 16 -1
v 2 16 -1
v -2 16 -2
v -1 16 -2
v 1 16 -2
v 2 16 -2
v -5 17 7
v -3 17 7
v 3 17 7
v 5 17 7
v -3 17 2
v -1 17 2
v 1 17 2
v 3 17 2
v -1 17 1
v 1 17 1
v -4 17 -0
v -3 17 -0
v -2 17 -0
v -1 17 -0
v 1 17 -0
v 2 17 -0
v 3 17 -0
v 4 17 -0
v -5 17 -1
v -4 17 -1
v -2 17 -1
v -1 17 -1
v 1 17 -1
v 2 17 -1
v 4 17 -1
v 5 17 -1
v -4 17 -2
v -2 17 -2
v -1 17 -2
v 1 17 -2
v 2 17 -2
v 4 17 -2
v -2 21 2
v 2 21 2
v -2 21 -1
v 2 21 -1

# faces
f 3/3/1 2/3/1 1/3/1
f 4/3/1 2/3/1 3/3/1
f 7/3/1 6/3/1 5/3/1
f 8/3/1 6/3/1 7/3/1
f 11/2/1 10/2/1 9/2/1
f 12/2/1 10/2/1 11/2/1
f 15/3/1 14/3/1 13/3/1
f 16/3/1 14/3/1 15/3/1
f 17/3/1 14/3/1 16/3/1
f 18/3/1 14/3/1 17/3/1
f 19/2/1 18/2/1 17/2/1
f 20/2/1 18/2/1 19/2/1
f 21/3/1 20/3/1 19/3/1
f 21/2/1 18/2/1 20/2/1
f 22/2/1 18/2/1 21/2/1
f 23/3/1 21/3/1 19/3/1
f 23/3/1 22/3/1 21/3/1
f 24/3/1 22/3/1 23/3/1
f 27/2/1 26/2/1 25/2/1
f 28/2/1 26/2/1 27/2/1
f 33/2/1 30/2/1 29/2/1
f 34/2/1 30/2/1 33/2/1
f 35/2/1 32/2/1 31/2/1
f 36/2/1 32/2/1 35/2/1
f 39/3/1 38/3/1 37/3/1
f 40/3/1 38/3/1 39/3/1
f 41/1/1 40/1/1 39/1/1
f 42/3/1 38/3/1 40/3/1
f 42/1/1 40/1/1 41/1/1
f 43/3/1 42/3/1 41/3/1
f 44/3/1 38/3/1 42/3/1
f 44/3/1 42/3/1 43/3/1
f 49/2/1 46/2/1 45/2/1
f 50/2/1 49/2/1 45/2/1
f 51/2/1 49/2/1 50/2/1
f 52/2/1 48/2/1 47/2/1
f 53/2/1 48/2/1 52/2/1
f 58/2/1 55/2/1 54/2/1
f 59/2/1 55/2/1 58/2/1
f 60/3/1 57/3/1 56/3/1
f 60/3/1 58/3/1 57/3/1
f 61/3/1 58/3/1 60/3/1
f 64/3/1 63/3/1 62/3/1
f 65/3/1 63/3/1 64/3/1
f 66/3/1 63/3/1 65/3/1
f 67/2/1 66/2/1 65/2/1
f 68/3/1 63/3/1 66/3/1
f 68/2/1 66/2/1 67/2/1
f 69/3/1 63/3/1 68/3/1
f 72/2/1 71/2/1 70/2/1
f 73/2/1 71/2/1 72/2/1
f 76/2/1 75/2/1 74/2/1
f 77/2/1 75/2/1 76/2/1
f 80/3/1 79/3/1 78/3/1
f 81/3/1 79/3/1 80/3/1
f 82/3/2 83/3/2 84/3/2
f 84/3/2 83/3/2 85/3/2
f 86/2/2 87/2/2 88/2/2
f 88/2/2 87/2/2 89/2/2
f 90/3/2 91/3/2 92/3/2
f 92/3/2 91/3/2 93/3/2
f 93/3/2 91/3/2 94/3/2
f 93/2/2 94/2/2 95/2/2
f 94/3/2 91/3/2 96/3/2
f 95/2/2 94/2/2 96/2/2
f 96/3/2 91/3/2 97/3/2
f 98/2/2 99/2/2 100/2/2
f 100/2/2 99/2/2 101/2/2
f 102/2/2 103/2/2 106/2/2
f 102/2/2 106/2/2 107/2/2
f 107/2/2 106/2/2 108/2/2
f 104/2/2 105/2/2 109/2/2
f 109/2/2 105/2/2 110/2/2
f 111/2/2 112/2/2 115/2/2
f 115/2/2 112/2/2 116/2/2
f 113/3/2 114/3/2 117/3/2
f 114/3/2 115/3/2 117/3/2
f 117/3/2 115/3/2 118/3/2
f 119/2/2 120/2/2 123/2/2
f 123/2/2 120/2/2 124/2/2
f 121/2/2 122/2/2 125/2/2
f 125/2/2 122/2/2 126/2/2
f 127/3/2 128/3/2 129/3/2
f 129/3/2 128/3/2 130/3/2
f 129/1/2 130/1/2 131/1/2
f 130/3/2 128/3/2 132/3/2
f 131/1/2 130/1/2 132/1/2
f 131/3/2 132/3/2 133/3/2
f 132/3/2 128/3/2 134/3/2
f 133/3/2 132/3/2 134/3/2
f 135/3/2 136/3/2 137/3/2
f 137/3/2 136/3/2 138/3/2
f 138/3/2 136/3/2 139/3/2
f 139/3/2 136/3/2 140/3/2
f 139/2/2 140/2/2 141/2/2
f 141/2/2 140/2/2 142/2/2
f 141/3/2 142/3/2 143/3/2
f 142/2/2 140/2/2 143/2/2
f 143/2/2 140/2/2 144/2/2
f 141/3/2 143/3/2 145/3/2
f 143/3/2 144/3/2 145/3/2
f 145/3/2 144/3/2 146/3/2
f 147/2/2 148/2/2 149/2/2
f 149/2/2 148/2/2 150/2/2
f 151/3/2 152/3/2 153/3/2
f 153/3/2 152/3/2 154/3/2
f 155/2/2 156/2/2 157/2/2
f 157/2/2 156/2/2 158/2/2
f 159/3/2 160/3/2 161/3/2
f 161/3/2 160/3/2 162/3/2
f 165/3/3 164/3/3 163/3/3
f 166/3/3 164/3/3 165/3/3
f 169/3/3 168/3/3 167/3/3
f 170/3/3 168/3/3 169/3/3
f 173/3/3 172/3/3 171/3/3
f 174/3/3 172/3/3 173/3/3
f 177/3/3 176/3/3 175/3/3
f 178/3/3 176/3/3 177/3/3
f 182/2/3 180/2/3 179/2/3
f 188/2/3 182/2/3 181/2/3
f 189/2/3 180/2/3 182/2/3
f 189/2/3 182/2/3 188/2/3
f 190/2/3 180/2/3 189/2/3
f 191/3/3 184/3/3 183/3/3
f 192/1/3 185/1/3 184/1/3
f 192/3/3 184/3/3 191/3/3
f 193/3/3 186/3/3 185/3/3
f 193/1/3 185/1/3 192/1/3
f 194/2/3 188/2/3 187/2/3
f 194/2/3 189/2/3 188/2/3
f 195/2/3 189/2/3 194/2/3
f 196/2/3 189/2/3 195/2/3
f 198/1/3 192/1/3 191/1/3
f 199/3/3 193/3/3 192/3/3
f 199/1/3 192/1/3 198/1/3
f 200/3/3 186/3/3 193/3/3
f 200/3/3 193/3/3 199/3/3
f 201/2/3 197/2/3 196/2/3
f 201/2/3 196/2/3 195/2/3
f 202/2/3 197/2/3 201/2/3
f 203/3/3 199/3/3 198/3/3
f 204/1/3 200/1/3 199/1/3
f 204/3/3 199/3/3 203/3/3
f 205/3/3 186/3/3 200/3/3
f 205/1/3 200/1/3 204/1/3
f 206/3/3 186/3/3 205/3/3
f 207/2/3 197/2/3 202/2/3
f 208/2/3 197/2/3 207/2/3
f 214/3/3 210/3/3 209/3/3
f 215/3/3 210/3/3 214/3/3
f 216/3/3 212/3/3 211/3/3
f 217/2/3 213/2/3 212/2/3
f 217/3/3 212/3/3 216/3/3
f 218/3/3 214/3/3 213/3/3
f 218/2/3 213/2/3 217/2/3
f 219/3/3 214/3/3 218/3/3
f 220/3/3 214/3/3 219/3/3
f 221/2/3 215/2/3 214/2/3
f 221/3/3 214/3/3 220/3/3
f 222/2/3 215/2/3 221/2/3
f 223/2/3 217/2/3 216/2/3
f 223/2/3 218/2/3 217/2/3
f 223/2/3 219/2/3 218/2/3
f 224/2/3 219/2/3 223/2/3
f 225/3/3 220/3/3 219/3/3
f 225/2/3 219/2/3 224/2/3
f 226/3/3 220/3/3 225/3/3
f 227/2/3 221/2/3 220/2/3
f 227/3/3 220/3/3 226/3/3
f 228/2/3 221/2/3 227/2/3
f 233/3/3 225/3/3 224/3/3
f 234/2/3 226/2/3 225/2/3
f 234/3/3 225/3/3 233/3/3
f 235/2/3 226/2/3 234/2/3
f 238/3/3 231/3/3 230/3/3
f 238/3/3 230/3/3 229/3/3
f 239/3/3 231/3/3 238/3/3
f 240/3/3 231/3/3 239/3/3
f 241/2/3 233/2/3 232/2/3
f 241/2/3 234/2/3 233/2/3
f 242/2/3 234/2/3 241/2/3
f 243/2/3 234/2/3 242/2/3
f 244/3/3 236/3/3 235/3/3
f 244/2/3 234/2/3 243/2/3
f 244/3/3 235/3/3 234/3/3
f 245/2/3 237/2/3 236/2/3
f 245/3/3 236/3/3 244/3/3
f 246/2/3 237/2/3 245/2/3
f 248/3/3 242/3/3 241/3/3
f 249/2/3 243/2/3 242/2/3
f 249/3/3 242/3/3 248/3/3
f 250/3/3 244/3/3 243/3/3
f 250/2/3 243/2/3 249/2/3
f 250/3/3 245/3/3 244/3/3
f 250/3/3 246/3/3 245/3/3
f 251/2/3 247/2/3 246/2/3
f 251/3/3 246/3/3 250/3/3
f 252/2/3 247/2/3 251/2/3
f 253/3/3 252/3/3 251/3/3
f 254/3/3 252/3/3 253/3/3
f 255/3/4 256/3/4 258/3/4
f 258/3/4 256/3/4 259/3/4
f 259/3/4 256/3/4 260/3/4
f 257/3/4 258/3/4 264/3/4
f 258/3/4 259/3/4 264/3/4
f 264/3/4 259/3/4 265/3/4
f 265/3/4 259/3/4 266/3/4
f 262/2/4 263/2/4 267/2/4
f 261/3/4 262/3/4 267/3/4
f 267/2/4 263/2/4 268/2/4
f 264/3/4 265/3/4 269/3/4
f 268/2/4 263/2/4 269/2/4
f 263/3/4 264/3/4 269/3/4
f 269/3/4 265/3/4 270/3/4
f 270/3/4 265/3/4 271/3/4
f 271/3/4 265/3/4 272/3/4
f 267/3/4 268/3/4 277/3/4
f 261/3/4 267/3/4 277/3/4
f 277/3/4 268/3/4 278/3/4
f 269/2/4 270/2/4 279/2/4
f 278/3/4 268/3/4 279/3/4
f 268/2/4 269/2/4 279/2/4
f 279/2/4 270/2/4 280/2/4
f 270/3/4 271/3/4 281/3/4
f 280/2/4 270/2/4 281/2/4
f 281/3/4 271/3/4 282/3/4
f 282/3/4 271/3/4 283/3/4
f 273/3/4 274/3/4 284/3/4
f 284/3/4 274/3/4 285/3/4
f 275/3/4 276/3/4 286/3/4
f 279/3/4 280/3/4 288/3/4
f 278/3/4 279/3/4 288/3/4
f 288/3/4 280/3/4 289/3/4
f 281/2/4 282/2/4 290/2/4
f 289/3/4 280/3/4 290/3/4
f 280/2/4 281/2/4 290/2/4
f 290/2/4 282/2/4 291/2/4
f 291/2/4 282/2/4 292/2/4
f 285/3/4 286/3/4 295/3/4
f 286/3/4 276/3/4 296/3/4
f 295/3/4 286/3/4 296/3/4
f 288/3/4 289/3/4 297/3/4
f 287/3/4 288/3/4 297/3/4
f 289/2/4 290/2/4 298/2/4
f 297/3/4 289/3/4 298/3/4
f 290/2/4 291/2/4 298/2/4
f 298/2/4 291/2/4 299/2/4
f 292/3/4 293/3/4 300/3/4
f 299/2/4 291/2/4 300/2/4
f 291/3/4 292/3/4 300/3/4
f 300/3/4 293/3/4 301/3/4
f 294/3/4 295/3/4 303/3/4
f 303/3/4 295/3/4 304/3/4
f 296/3/4 276/3/4 305/3/4
f 305/3/4 276/3/4 306/3/4
f 287/3/4 297/3/4 307/3/4
f 298/2/4 299/2/4 308/2/4
f 307/3/4 297/3/4 308/3/4
f 297/2/4 298/2/4 308/2/4
f 301/3/4 302/3/4 309/3/4
f 308/2/4 299/2/4 309/2/4
f 299/3/4 300/3/4 309/3/4
f 300/3/4 301/3/4 309/3/4
f 309/3/4 302/3/4 310/3/4
f 310/3/4 302/3/4 311/3/4
f 311/3/4 312/3/4 313/3/4
f 310/3/4 311/3/4 313/3/4
f 313/3/4 312/3/4 314/3/4
f 314/3/4 312/3/4 315/3/4
f 315/3/4 316/3/4 317/3/4
f 314/3/4 315/3/4 317/3/4
f 317/3/4 316/3/4 318/3/4
f 319/2/4 320/2/4 322/2/4
f 321/2/4 322/2/4 324/2/4
f 322/2/4 320/2/4 325/2/4
f 324/2/4 322/2/4 325/2/4
f 325/2/4 320/2/4 326/2/4
f 323/2/4 324/2/4 328/2/4
f 324/2/4 325/2/4 328/2/4
f 328/2/4 325/2/4 329/2/4
f 327/2/4 328/2/4 331/2/4
f 329/2/4 330/2/4 331/2/4
f 328/2/4 329/2/4 331/2/4
f 331/2/4 330/2/4 332/2/4
f 332/2/4 330/2/4 333/2/4
f 333/2/4 330/2/4 334/2/4
f 332/2/4 333/2/4 335/2/4
f 335/2/4 333/2/4 336/2/4
f 336/2/4 333/2/4 337/2/4
f 337/2/4 338/2/4 339/2/4
f 336/2/4 337/2/4 339/2/4
f 339/2/4 338/2/4 340/2/4
f 340/2/4 338/2/4 341/2/4
f 341/2/4 338/2/4 342/2/4
f 347/3/5 344/3/5 343/3/5
f 348/3/5 344/3/5 347/3/5
f 349/3/5 346/3/5 345/3/5
f 350/3/5 346/3/5 349/3/5
f 353/3/5 352/3/5 351/3/5
f 354/3/5 352/3/5 353/3/5
f 355/3/5 354/3/5 353/3/5
f 356/3/5 354/3/5 355/3/5
f 359/2/5 358/2/5 357/2/5
f 360/2/5 358/2/5 359/2/5
f 363/2/5 362/2/5 361/2/5
f 364/2/5 362/2/5 363/2/5
f 371/2/5 366/2/5 365/2/5
f 372/2/5 366/2/5 371/2/5
f 373/2/5 368/2/5 367/2/5
f 374/2/5 368/2/5 373/2/5
f 377/3/5 370/3/5 369/3/5
f 378/3/5 370/3/5 377/3/5
f 383/3/5 376/3/5 375/3/5
f 384/3/5 376/3/5 383/3/5
f 385/2/5 380/2/5 379/2/5
f 386/2/5 380/2/5 385/2/5
f 387/2/5 382/2/5 381/2/5
f 388/2/5 382/2/5 387/2/5
f 393/3/5 390/3/5 389/3/5
f 396/3/5 392/3/5 391/3/5
f 397/3/5 393/3/5 389/3/5
f 398/2/5 394/2/5 393/2/5
f 398/3/5 393/3/5 397/3/5
f 399/2/5 394/2/5 398/2/5
f 400/2/5 396/2/5 395/2/5
f 401/3/5 392/3/5 396/3/5
f 401/2/5 396/2/5 400/2/5
f 402/3/5 392/3/5 401/3/5
f 403/3/5 397/3/5 389/3/5
f 404/3/5 397/3/5 403/3/5
f 409/3/5 392/3/5 402/3/5
f 410/3/5 392/3/5 409/3/5
f 411/2/5 406/2/5 405/2/5
f 412/2/5 406/2/5 411/2/5
f 413/2/5 408/2/5 407/2/5
f 414/2/5 408/2/5 413/2/5
f 419/2/5 416/2/5 415/2/5
f 420/2/5 416/2/5 419/2/5
f 421/2/5 418/2/5 417/2/5
f 422/2/5 418/2/5 421/2/5
f 427/3/5 424/3/5 423/3/5
f 427/1/5 425/1/5 424/1/5
f 428/3/5 426/3/5 425/3/5
f 428/1/5 425/1/5 427/1/5
f 429/3/5 427/3/5 423/3/5
f 430/3/5 427/3/5 429/3/5
f 431/3/5 426/3/5 428/3/5
f 432/3/5 426/3/5 431/3/5
f 433/3/6 434/3/6 437/3/6
f 437/3/6 434/3/6 438/3/6
f 438/3/6 434/3/6 439/3/6
f 435/3/6 436/3/6 440/3/6
f 440/3/6 436/3/6 441/3/6
f 441/3/6 436/3/6 442/3/6
f 443/2/6 444/2/6 445/2/6
f 445/2/6 444/2/6 446/2/6
f 447/2/6 448/2/6 451/2/6
f 451/2/6 448/2/6 452/2/6
f 449/2/6 450/2/6 453/2/6
f 453/2/6 450/2/6 454/2/6
f 455/3/6 456/3/6 459/3/6
f 457/3/6 458/3/6 462/3/6
f 459/2/6 460/2/6 463/2/6
f 461/2/6 462/2/6 464/2/6
f 455/3/6 459/3/6 465/3/6
f 459/2/6 463/2/6 466/2/6
f 465/3/6 459/3/6 466/3/6
f 466/2/6 463/2/6 467/2/6
f 467/2/6 463/2/6 468/2/6
f 464/2/6 462/2/6 469/2/6
f 469/2/6 462/2/6 470/2/6
f 462/3/6 458/3/6 471/3/6
f 470/2/6 462/2/6 471/2/6
f 471/3/6 458/3/6 472/3/6
f 455/3/6 465/3/6 473/3/6
f 465/2/6 466/2/6 474/2/6
f 473/3/6 465/3/6 474/3/6
f 466/2/6 467/2/6 474/2/6
f 467/3/6 468/3/6 475/3/6
f 474/2/6 467/2/6 475/2/6
f 475/3/6 468/3/6 476/3/6
f 469/3/6 470/3/6 477/3/6
f 471/2/6 472/2/6 478/2/6
f 470/2/6 471/2/6 478/2/6
f 477/3/6 470/3/6 478/3/6
f 472/3/6 458/3/6 479/3/6
f 478/2/6 472/2/6 479/2/6
f 479/3/6 458/3/6 480/3/6
f 474/2/6 475/2/6 481/2/6
f 481/2/6 475/2/6 482/2/6
f 476/2/6 477/2/6 483/2/6
f 483/2/6 477/2/6 484/2/6
f 478/2/6 479/2/6 485/2/6
f 485/2/6 479/2/6 486/2/6
f 487/3/6 488/3/6 489/3/6
f 489/3/6 488/3/6 490/3/6
